<?xml version="1.0" encoding="UTF-8" standalone="no"?><!DOCTYPE svg PUBLIC "-//W3C//DTD SVG 1.1//EN" "http://www.w3.org/Graphics/SVG/1.1/DTD/svg11.dtd"><svg width="100%" height="100%" viewBox="0 0 178 178" version="1.1" xmlns="http://www.w3.org/2000/svg" xmlns:xlink="http://www.w3.org/1999/xlink" xml:space="preserve" xmlns:serif="http://www.serif.com/" style="fill-rule:evenodd;clip-rule:evenodd;stroke-linejoin:round;stroke-miterlimit:2;"><path d="M88.583,20.781c37.42,0 67.801,30.381 67.801,67.802c0,37.42 -30.381,67.801 -67.801,67.801c-37.421,0 -67.802,-30.381 -67.802,-67.801c0,-37.421 30.381,-67.802 67.802,-67.802Zm-0,16.767c-28.167,-0 -51.035,22.868 -51.035,51.035c-0,28.167 22.868,51.035 51.035,51.035c28.167,-0 51.035,-22.868 51.035,-51.035c-0,-28.167 -22.868,-51.035 -51.035,-51.035Z" style="fill:#fff;"/><path d="M74.216,154.856l-1.536,-2.635c-0.667,-1.146 -1.053,-2.433 -1.126,-3.757c-0,0 -0.594,-14.664 1.434,-20.91l1.206,-2.789l1.572,-2.167l2.895,-2.182l2.781,-0.893c2.756,-0.44 11.345,-3.767 17.758,-4.737c5.286,-0.799 9.713,0.084 12.251,1.752c3.83,2.516 17.19,15.53 21.732,23.096c-11.925,10.428 -27.53,16.75 -44.6,16.75c-4.929,0 -9.736,-0.527 -14.367,-1.528Zm14.629,-20.047l-0.477,11.032c0,0 3.987,6.844 3.987,6.844c5.94,-2.083 14.823,-5.258 21.63,-7.958c0.413,-0.164 0.833,-0.335 1.252,-0.508c-3.755,-4.273 -9.407,-10.581 -12.073,-12.936c-1.433,0.222 -5.255,0.846 -7.714,1.55c-2.36,0.675 -4.651,1.387 -6.605,1.976Z" style="fill:#fff;"/><path d="M36.141,45.624c3.557,-4.336 7.641,-8.224 12.154,-11.565c9.19,8.242 22.045,19.303 27.86,22.471c0.153,0.083 0.417,0.21 0.417,0.21c-0,0 -1.088,-0.264 -1.462,-0.29l3.875,0.899l3.052,1.694c2.14,1.542 4.211,3.908 5.809,6.834c3.723,6.81 4.509,16.455 0.572,22.778l-2.971,3.2c-1.04,0.797 -2.459,1.65 -4.241,2.473c-4.714,2.176 -12.905,4.502 -22.148,6.383c-12.273,2.499 -26.436,4.275 -36.273,4.286c-1.309,-5.257 -2.004,-10.755 -2.004,-16.414c0,-0.16 0.001,-0.319 0.002,-0.478c1.256,0.081 2.621,0.134 3.86,0.104c8.791,-0.212 20.675,-1.811 31.07,-3.927c6.095,-1.241 11.67,-2.654 15.748,-4.096c1.06,-0.375 2.26,-0.907 3.006,-1.251c0.08,-0.74 -0.146,-1.582 -0.334,-2.38c-0.295,-1.254 -1.365,-3.043 -1.764,-3.682c-2.072,-0.578 -5.166,-1.979 -8.687,-4.437c-7.428,-5.187 -19.185,-15.338 -27.541,-22.812Z" style="fill:#fff;"/><path d="M155.549,99.243c-2.73,-0.741 -5.867,-2.235 -8.99,-3.653c-1.703,-0.773 -3.348,-1.661 -4.856,-1.743c-5.005,-0.273 -17.081,1.324 -25.437,-0.083c-6.221,-1.047 -10.864,-3.817 -13.236,-7.544c-5.831,-9.163 -10.659,-24.463 -3.662,-35.626c2.673,-4.263 10.361,-14.506 17.389,-23.691c5.147,2.357 9.95,5.34 14.309,8.852c-6.974,9.079 -14.824,19.49 -17.491,23.745c-1.45,2.312 -1.266,5.071 -0.706,7.694c0.74,3.458 2.321,6.778 3.917,9.398c0.766,0.198 3.328,0.834 5.077,0.953c7.555,0.511 16.643,-0.664 20.754,-0.44c3.665,0.2 7.966,1.871 12.09,3.777c0.39,0.18 0.837,0.374 1.306,0.572c0.246,2.343 0.371,4.721 0.371,7.129c0,3.626 -0.285,7.187 -0.835,10.66Z" style="fill:#fff;"/><path d="M84.642,93.104c4.084,-2.175 9.165,-0.626 11.34,3.458c2.175,4.084 0.625,9.165 -3.458,11.34l-13.167,7.013c-4.084,2.175 -9.165,0.625 -11.34,-3.459c-2.175,-4.084 -0.625,-9.165 3.458,-11.34l13.167,-7.012Z" style="fill:#fff;"/></svg>