<?xml version="1.0" encoding="UTF-8" standalone="no"?>
<!DOCTYPE svg PUBLIC "-//W3C//DTD SVG 1.1//EN" "http://www.w3.org/Graphics/SVG/1.1/DTD/svg11.dtd">
<svg width="100%" height="100%" viewBox="0 0 178 178" version="1.1" xmlns="http://www.w3.org/2000/svg" xmlns:xlink="http://www.w3.org/1999/xlink" xml:space="preserve" xmlns:serif="http://www.serif.com/" style="fill-rule:evenodd;clip-rule:evenodd;stroke-linejoin:round;stroke-miterlimit:2;">
    <g transform="matrix(1.39226,0,0,1.14524,-40.5703,-3.45764)">
        <path d="M123.71,62.111C123.71,58.07 126.408,54.79 129.731,54.79C133.054,54.79 135.752,58.07 135.752,62.111L135.752,136.042C135.752,140.085 133.056,143.362 129.731,143.362L55.799,143.362C52.474,143.362 49.778,140.085 49.778,136.042L49.778,62.111C49.778,58.07 52.476,54.79 55.799,54.79C59.123,54.79 61.821,58.07 61.821,62.111L61.821,128.722C61.821,128.722 123.71,128.722 123.71,128.722L123.71,62.111Z" style="fill:white;"/>
    </g>
    <g transform="matrix(1.03577,0,0,1.03577,-3.16882,5.41695)">
        <path d="M83.712,12.269C87.279,9.581 92.358,10.295 95.047,13.862C97.735,17.43 97.021,22.509 93.454,25.197L21,79.795C17.432,82.483 12.353,81.769 9.665,78.201C6.976,74.634 7.69,69.555 11.258,66.866L83.712,12.269Z" style="fill:white;"/>
    </g>
    <g transform="matrix(-1.03577,0,0,1.03577,180.334,5.41695)">
        <path d="M93.454,25.197C97.021,22.509 97.735,17.43 95.047,13.862C92.358,10.295 87.279,9.581 83.712,12.269L11.258,66.866C7.69,69.555 6.976,74.634 9.665,78.201C12.353,81.769 17.432,82.483 21,79.795L93.454,25.197Z" style="fill:white;"/>
    </g>
</svg>
