<?xml version="1.0" encoding="UTF-8" standalone="no"?>
<!DOCTYPE svg PUBLIC "-//W3C//DTD SVG 1.1//EN" "http://www.w3.org/Graphics/SVG/1.1/DTD/svg11.dtd">
<svg width="100%" height="100%" viewBox="0 0 178 178" version="1.1" xmlns="http://www.w3.org/2000/svg" xmlns:xlink="http://www.w3.org/1999/xlink" xml:space="preserve" xmlns:serif="http://www.serif.com/" style="fill-rule:evenodd;clip-rule:evenodd;stroke-linejoin:round;stroke-miterlimit:2;">
    <g transform="matrix(1.11795,0,0,1.11795,-1502.4,-202.733)">
        <g transform="matrix(1,0,0,1,91.9894,-15.539)">
            <path d="M1280.91,253.932C1297.45,259.455 1308.13,276.719 1314.82,299.597L1290.72,299.597L1280.91,270.427L1280.91,253.932ZM1330,299.597C1330.23,274.33 1330.47,249.397 1330.47,249.397C1326.38,249.291 1321.55,247.352 1322.2,244.673C1322.72,242.499 1327.96,241.453 1330.47,241.425C1330.92,241.42 1331.29,241.419 1331.81,241.425C1334.31,241.453 1339.55,242.499 1340.07,244.673C1340.72,247.352 1335.89,249.291 1331.81,249.397C1331.81,249.397 1332.04,274.33 1332.27,299.597L1330,299.597ZM1347.45,299.597C1354.14,276.719 1364.83,259.455 1381.37,253.932L1381.37,270.427L1371.55,299.597L1347.45,299.597Z" style="fill:rgb(83,83,83);"/>
        </g>
        <g transform="matrix(1,0,0,1,-9.62408,-69.685)">
            <path d="M1432.67,255.118C1410.66,255.118 1406.45,262.94 1406.1,263.386C1391.24,281.927 1375.09,291.302 1361.8,304.724C1355.81,310.781 1354.64,316.25 1353.54,323.031C1353.27,324.664 1355.29,325.01 1355.9,323.031C1359.86,310.099 1369.04,304.905 1378.93,307.087C1405.85,313.027 1418.4,348.178 1423.5,389.764C1421.3,390.001 1417.22,392.37 1417.91,394.488C1419.29,398.717 1422.1,402.788 1426.47,404.97C1427.15,405.312 1428.54,405.413 1431.19,405.413C1431.19,397.08 1432.08,303.543 1432.08,303.543C1427.99,303.437 1423.16,301.498 1423.81,298.819C1424.34,296.646 1429.58,295.599 1432.08,295.571C1432.54,295.566 1432.9,295.565 1433.42,295.571C1435.92,295.599 1441.16,296.646 1441.69,298.819C1442.33,301.498 1437.51,303.437 1433.42,303.543C1433.42,303.543 1434.31,397.08 1434.31,405.413C1436.96,405.413 1438.35,405.312 1439.03,404.97C1443.4,402.788 1446.21,398.717 1447.59,394.488C1448.28,392.37 1444.2,390.001 1442,389.764C1447.1,348.178 1459.65,313.027 1486.57,307.087C1496.45,304.905 1505.64,310.099 1509.6,323.031C1510.21,325.01 1512.23,324.664 1511.96,323.031C1510.86,316.25 1509.69,310.781 1503.69,304.724C1490.41,291.302 1474.26,281.927 1459.4,263.386C1459.05,262.94 1454.84,255.118 1432.83,255.118L1432.67,255.118Z" style="fill:white;"/>
        </g>
    </g>
</svg>
