<?xml version="1.0" encoding="UTF-8" standalone="no"?><!DOCTYPE svg PUBLIC "-//W3C//DTD SVG 1.1//EN" "http://www.w3.org/Graphics/SVG/1.1/DTD/svg11.dtd"><svg width="100%" height="100%" viewBox="0 0 178 178" version="1.1" xmlns="http://www.w3.org/2000/svg" xmlns:xlink="http://www.w3.org/1999/xlink" xml:space="preserve" xmlns:serif="http://www.serif.com/" style="fill-rule:evenodd;clip-rule:evenodd;stroke-linejoin:round;stroke-miterlimit:2;"><path d="M88.583,6.67c32.171,0 58.289,26.119 58.289,58.29c0,32.171 -26.118,58.29 -58.289,58.29c-32.171,-0 -58.29,-26.119 -58.29,-58.29c-0,-32.171 26.119,-58.29 58.29,-58.29Zm-0,16.767c-22.918,-0 -41.523,18.606 -41.523,41.523c-0,22.917 18.605,41.523 41.523,41.523c22.917,-0 41.523,-18.606 41.523,-41.523c-0,-22.917 -18.606,-41.523 -41.523,-41.523Z" style="fill:#fff;"/><path d="M88.583,127.588c27.956,0 52.674,9.875 68.042,24.717c11.083,10.704 17.444,23.992 17.444,38.269c0,14.277 -6.361,27.565 -17.444,38.269c-15.368,14.842 -40.086,24.717 -68.042,24.717c-27.957,-0 -52.675,-9.875 -68.043,-24.717c-11.082,-10.704 -17.444,-23.992 -17.444,-38.269c0,-14.277 6.362,-27.565 17.444,-38.269c15.368,-14.842 40.086,-24.717 68.043,-24.717Zm-0,16.767c-23.109,0 -43.692,7.742 -56.395,20.01c-7.632,7.371 -12.325,16.377 -12.325,26.209c-0,9.832 4.693,18.838 12.325,26.209c12.703,12.269 33.286,20.01 56.395,20.01c23.109,-0 43.691,-7.741 56.394,-20.01c7.632,-7.371 12.326,-16.377 12.326,-26.209c-0,-9.832 -4.694,-18.838 -12.326,-26.209c-12.703,-12.268 -33.285,-20.01 -56.394,-20.01Z" style="fill:#fff;"/></svg>