<?xml version="1.0" encoding="UTF-8" standalone="no"?>
<!DOCTYPE svg PUBLIC "-//W3C//DTD SVG 1.1//EN" "http://www.w3.org/Graphics/SVG/1.1/DTD/svg11.dtd">
<svg width="100%" height="100%" viewBox="0 0 178 178" version="1.1" xmlns="http://www.w3.org/2000/svg" xmlns:xlink="http://www.w3.org/1999/xlink" xml:space="preserve" xmlns:serif="http://www.serif.com/" style="fill-rule:evenodd;clip-rule:evenodd;stroke-linejoin:round;stroke-miterlimit:2;">
    <g transform="matrix(1,0,0,1,-1.65712,-1.00769)">
        <g transform="matrix(1.3685,0,0,1.3685,-85.0096,-46.7005)">
            <path d="M120.964,38.715C148.915,38.715 171.607,61.407 171.607,89.358C171.607,117.308 148.915,140 120.964,140C93.014,140 70.322,117.308 70.322,89.358C70.322,61.407 93.014,38.715 120.964,38.715ZM120.964,50.967C99.776,50.967 82.573,68.169 82.573,89.358C82.573,110.546 99.776,127.748 120.964,127.748C142.153,127.748 159.355,110.546 159.355,89.358C159.355,68.169 142.153,50.967 120.964,50.967Z" style="fill:white;"/>
        </g>
        <g transform="matrix(1.35733,0.357333,0.357333,1.35733,-105.491,-108.181)">
            <path d="M124.616,142.808C122.708,140.9 123.815,136.694 127.087,133.422C130.358,130.151 134.564,129.044 136.472,130.952L159.951,154.431C161.859,156.339 160.752,160.544 157.48,163.816C154.209,167.088 150.003,168.195 148.095,166.287L124.616,142.808Z" style="fill:white;"/>
        </g>
    </g>
</svg>
